<?xml version="1.0" encoding="UTF-8"?>
<svg viewBox="0 0 640 480" xmlns="http://www.w3.org/2000/svg">
 <g fill="#fff" fill-rule="evenodd">
  <g stroke="#000">
   <path d="m135.7 198.35l3.0648-15.324h-10.727l-7.6619 10.727 15.324 4.5972z" stroke-width="3.875"/>
   <path d="m311.93 308.69s-12.259 6.1296-9.1943-1.5324c3.0648-7.6619 12.259-9.1943 1.5324-7.6619s-1.5324 9.1943-10.727 1.5324c-9.1943-7.6619 7.6619-12.259 7.6619-12.259l21.453-1.5323-10.727 21.453z" stroke-opacity=".276" stroke-width="1.734"/>
   <g stroke-width="3.875">
    <path d="m310.39 305.62c3.0648 16.856 18.389 15.324 18.389 15.324s10.727 1.5324 24.518 0 21.453 1.5324 27.583-3.0648c6.1295-4.5971 7.6619-3.0647 10.727-9.1943 3.0648-6.1295 4.5971-10.727 3.0648-15.324-1.5324-4.5972-1.5324-10.727-7.6619-13.791-6.1295-3.0647-13.791-3.0647-13.791-3.0647l-50.568 4.5971s-6.1295-1.5324-9.1943 7.6619-3.0648 16.856-3.0648 16.856z"/>
    <path d="m79.004 248.92c13.791 7.6619 81.216 30.648 87.346 30.648 6.1295 0 39.842 4.5971 47.504 4.5971 7.6619 0 85.813-3.0648 124.12-6.1295 38.31-3.0648 84.281-9.1943 110.33-10.727 26.05-1.5324 117.99-9.1943 147.11-13.791 29.115-4.5971 50.569-24.518 50.569-24.518s6.1295-4.5971 4.5971-10.727c-1.5324-6.1296-27.583-18.389-27.583-18.389s-4.5972-6.1296-22.986-10.727c-18.389-4.5971-22.986-6.1296-36.777-7.6619-13.791-1.5324-95.008 4.5971-127.19 7.6619-32.18 3.0648-199.21 18.389-199.21 18.389s-30.648 3.0648-58.23 0c-27.583-3.0648-29.115-3.0648-47.504-12.259-18.388-9.1943-96.54-84.281-96.54-84.281l-19.921 4.5972 64.36 114.93-7.6619 1.5324s1.5324 7.6619 7.6619 16.856z"/>
   </g>
  </g>
  <path d="m311.93 269.25s88.878-21.453 113.4-19.921c24.518 1.5324 6.1296 12.259 6.1296 12.259s-15.324 7.6619-32.18 6.1296c-19.921 7.6619-87.346 1.5324-87.346 1.5324z" fill-opacity=".276"/>
  <g stroke="#000">
   <g stroke-width="3.875">
    <path d="m273.62 276.51c6.1296-4.5972 101.14-18.389 107.27-18.389 6.1295 0 16.856 3.0648 10.727 7.6619-6.1295 4.5971-332.53 101.14-332.53 101.14s-24.518 3.0647-29.115-4.5972c-4.5972-7.6619-26.05-26.05-26.05-26.05l18.389-1.5324 21.453 16.856 229.86-75.087z"/>
    <path d="m432.98 187.63l22.986-64.36-22.986-30.648h-15.324l12.259 30.648-55.166 70.49 58.23-6.1295z"/>
    <path d="m111.18 245.86l-131.78 32.18-16.856-1.5323s-9.1943-3.0648-1.5324-6.1296 105.73-27.583 105.73-27.583 16.856-6.1295 27.583-3.0648c10.727 3.0648 16.856 6.1295 16.856 6.1295z"/>
   </g>
   <path d="m157.16 253.52s332.53-26.05 372.37-29.115" fill-opacity=".75" stroke-dasharray="8.8750000 8.8750000" stroke-width="8.875"/>
   <path d="m573.96 207.55l1.5323 9.1943 16.856-1.5323s3.0648 1.5324 15.324-4.5972c12.259-6.1295 13.791-10.727 13.791-10.727l-9.1943-6.1295s1.5324 6.1296-7.6619 7.6619c-9.1943 1.5324-30.648 6.1295-30.648 6.1295z" fill-opacity=".222" stroke-width="2.625"/>
  </g>
  <path d="m374.75 315s-5.2319-4.3342-6.1295-12.445c-3.0648-9.1943-1.4394-10.185 3.0648-16.856 6.1295-6.1295 6.1295-7.6619 10.727-4.5971 4.5971 3.0648 8.2966 4.5971 7.6619 12.259 1.5324 7.6619 2.0742 12.801-4.0554 15.866-3.4206 5.2319-11.268 5.7736-11.268 5.7736z"/>
  <g fill-opacity=".276">
   <path d="m43.759 353.12l7.6619 7.6619 199.21-70.49s-182.35 56.698-191.55 59.763c-9.1943 3.0648-15.324 3.0648-15.324 3.0648z"/>
   <path d="m431.45 124.8l19.921-1.5324s-3.0648-3.0648-18.389 13.791-33.712 35.245-33.712 35.245l32.18-47.504z"/>
   <path d="m83.601 227.47l82.748-16.856s-35.245 9.1943-49.036 16.856c-13.791 7.6619-33.712 0-33.712 0z"/>
   <path d="m134.17 209.08s1.5324 3.0648-18.389-12.259-76.619-73.554-76.619-73.554l75.087 84.281s3.0648 7.6619 10.727 6.1295c7.6619-1.5324 9.1943-4.5971 9.1943-4.5971z"/>
   <path d="m314.99 297.96c0 9.1943 0 12.259 3.0648 15.324 3.0648 3.0648 42.907-7.6619 42.907-7.6619s-15.324-1.5324-29.115-4.5971c-13.791-3.0648-16.856-3.0648-16.856-3.0648z"/>
  </g>
 </g>
</svg>
