<?xml version="1.0" encoding="UTF-8"?>
<svg viewBox="0 0 640 480" xmlns="http://www.w3.org/2000/svg" xmlns:xlink="http://www.w3.org/1999/xlink">
 <defs>
  <linearGradient id="h" x1=".50704" x2=".29225" y1="-.13889" y2="1">
   <stop offset="0"/>
   <stop stop-opacity="0" offset="1"/>
  </linearGradient>
  <linearGradient id="f">
   <stop stop-color="#acacac" offset="0"/>
   <stop stop-color="#a4a4a4" offset=".78261"/>
   <stop stop-color="#272727" offset="1"/>
  </linearGradient>
  <radialGradient id="i" cx="538.37" cy="370.41" r="16.066" gradientTransform="scale(.79612 1.2561)" gradientUnits="userSpaceOnUse" xlink:href="#f"/>
  <radialGradient id="g" cx="125.73" cy="1178.5" r="49.884" gradientTransform="scale(2.5128 .39796)" gradientUnits="userSpaceOnUse">
   <stop offset="0"/>
   <stop stop-opacity=".827" offset=".26087"/>
   <stop stop-opacity="0" offset="1"/>
  </radialGradient>
  <radialGradient id="j" cx="342.17" cy="308.37" r="10.219" gradientTransform="scale(.69267 1.4437)" gradientUnits="userSpaceOnUse" xlink:href="#f"/>
 </defs>
 <g fill-rule="evenodd">
  <path d="m926.54 245s13.364-4.455 19.091-1.273c5.728 3.182 13.364 5.091 14 11.454 0.63702 6.364 7.637 0.63701 7.637 0.63701" fill="none" stroke="#000" stroke-width="8.75"/>
  <g stroke-linecap="round" stroke-linejoin="round">
   <rect x="933.77" y="185.77" width="29.242" height="110.7" rx="9.1201" ry="25.844" stroke-width="1.248"/>
   <g fill="url(#g)" stroke-opacity=".405" stroke-width=".5">
    <path d="m1024.6 584.67a237.56 37.623 0 1 1 -475.13 0" opacity=".372"/>
    <path d="m831.1 567.47a237.56 37.623 0 1 1 -475.13 0" opacity=".372"/>
    <path d="m676.3 539.52a237.56 37.623 0 1 1 -475.13 0" opacity=".372"/>
    <path d="m523.66 522.32a237.56 37.623 0 1 1 -475.13 0" opacity=".372"/>
   </g>
  </g>
  <path d="m168.31 528.83l66.647-27.949 582.62 51.597s-137.59 38.698-202.09 36.549c-64.497-2.15-221.44-32.249-281.64-40.848-60.197-8.6-249.39-10.75-227.89-15.05 21.499-4.299 62.347-4.299 62.347-4.299z" fill="url(#h)"/>
  <path d="m854.1 491.47a237.56 37.623 0 1 1 -475.13 0" fill="url(#g)" opacity=".372" stroke-linecap="round" stroke-linejoin="round" stroke-opacity=".405" stroke-width=".5"/>
  <g stroke="#000" stroke-width="3.79">
   <path d="m148.41 495.92c0.377 6.422 1.888 14.733 0.377 17.756-1.511 3.022 9.822 0 9.822 0s3.4 8.311 6.8 10.955c3.4 2.645 5.667 3.778 10.956 4.156 5.289 0.37799 16.244 0 20.778-0.37799 4.533-0.37799 7.555 0 9.822-3.778 2.266-3.778 5.666-10.578 7.933-17.378 2.267-6.799 0.37799-62.332 0.37799-62.332s-32.867-28.711-43.822-28.334c-10.956 0.37802-26.822 22.667-26.822 27.2 0 4.534 3.778 54.022 3.778 54.022v-1.889z"/>
   <path d="m537.56 583.36l43.98-4.256s7.093-1.419 12.768-11.35 5.675-36.887 5.675-36.887l-5.675-85.122s-19.862-19.862-58.167-14.187c-38.305 5.674-56.749 28.374-55.33 56.748s2.837 53.911 2.837 53.911 2.838 19.862-1.418 26.956c-4.256 7.093 34.049 0 34.049 0s4.256 5.674 12.768 9.931l8.513 4.256z"/>
  </g>
  <path d="m547.04 582.7c19.919 0.36298 32.884-17.303 33.502-51.181 0.31299-17.151-8.717-39.996-15.19-51.257 5.097 10.776 8.871 28.12 8.597 43.168-0.61798 33.879-15.809 58.871-35.729 58.507-9.901-0.18103-20.878-8.625-27.2-19.739 6.376 13.578 24.903 20.299 36.02 20.502z" fill="#fff" fill-opacity=".195" stroke-linecap="round" stroke-linejoin="round" stroke-opacity=".384" stroke-width="1.032"/>
  <g stroke="#000">
   <g stroke-width="3.79">
    <path d="m746.11 415.96l-25.537-106.4-28.374-129.1 21.281-24.118 174.5 18.443 15.606 9.931s29.793 73.773 39.724 107.82c9.931 34.049 22.699 75.192 24.118 90.797 1.419 15.606 5.675 41.143 4.256 49.655-1.419 8.513-89.379 21.281-89.379 21.281l-119.17-15.606-17.025-22.699z"/>
    <path d="m728.46 574.01s218.48-12.122 226.93-18.033c8.444-5.911 13.868-18.903 13.868-18.903s-144.14 11.859-178.34 16.927c-34.199 5.068-62.455 20.009-62.455 20.009z" fill="#5f0000"/>
   </g>
   <path d="m52.361 474.38s3.4169-162.3 3.4169-182.8c0-20.501 3.4168-32.46 5.1252-44.419s13.667-22.209 13.667-22.209l551.82-97.38s27.335-6.834 41.002-5.125c13.667 1.708 123.01 10.25 123.01 10.25s47.836 8.542 64.92 13.667c17.084 5.126 27.335 8.542 37.585 20.501 10.251 11.959 13.667 18.793 13.667 18.793s-37.585-6.834-80.295-11.959c-42.711-5.125-68.337-6.834-87.129-6.834-18.793 0-25.627 6.834-32.46 10.251-6.834 3.417-6.834 18.792-6.834 18.792s44.419 184.51 46.127 193.05c1.709 8.543 10.251 27.335 18.793 30.752s20.501 8.542 29.043 11.959 70.045 5.125 93.963 5.125 52.961 1.709 64.92 0c11.959-1.708 20.501-8.542 20.501-8.542v47.836s-1.709 63.211-5.126 68.336c-3.416 5.126-198.18 18.793-210.14 22.21-11.959 3.417-20.501 6.833-32.46 6.833s-141.8-20.501-141.8-20.501l-6.834 6.834s0-34.168-1.708-52.961c-1.709-18.792-10.251-35.877-23.918-51.252-13.667-15.376-34.168-10.251-34.168-10.251s-10.251 1.709-17.085 11.959c-6.833 10.251-11.959 25.626-11.959 37.585s-3.416 32.46-3.416 39.294-1.709 8.542-1.709 8.542l-5.125-5.125s-254.55-34.169-268.22-29.043c-13.668 5.125-11.959-3.417-11.959-3.417v-34.169c0-13.667-8.542-34.168-11.959-37.585-3.417-3.416-11.959-10.25-17.084-8.542-5.126 1.709-11.959 8.542-15.376 18.793-3.417 10.25-5.125 20.501-5.125 30.751 0 10.251 1.708 25.627 1.708 25.627l-6.834-6.834s-27.334 3.417-47.835-3.417-42.71-15.376-42.71-15.376z" fill="#ff7f00" stroke-width="1.895"/>
  </g>
  <path d="m848.48 518.8l-6.8329-30.751s90.546-6.834 97.379-3.417c6.834 3.417 1.709 30.751 1.709 30.751l-78.587 6.834 77.173-8.704-3.711-26.966c-5.258-0.50101-89.383-2.71-91.091 4.123-1.709 6.834 3.961 28.13 3.961 28.13z" fill-opacity=".514"/>
  <g stroke="#000">
   <g stroke-width="1.895">
    <path d="m880.94 517.09l25.626-30.752" fill="none"/>
    <path d="m723.77 501.72s-29.043-3.417-46.127-22.209c-17.085-18.793-30.752-44.419-39.294-80.296s-17.084-99.088-17.084-99.088l-553.53 27.334s-5.1253-13.667-5.1253-35.876c0-22.21 6.8337-46.127 6.8337-46.127l555.24-82.004s25.626-5.126 41.002 5.125c15.375 10.25 20.501 23.918 23.918 34.168 3.416 10.251 30.751 129.84 32.459 150.34 1.709 20.501 3.417 29.043 3.417 29.043l-1.708 119.59z"/>
   </g>
   <g fill="none">
    <path d="m643.47 421.42l1.709 136.67 80.295 10.25 1.709-5.125-1.709-124.71" stroke-width="3.411"/>
    <path d="m265.91 507.6v-177.77l41.002-2.376v184.7" stroke-width="3.222"/>
   </g>
  </g>
  <g fill="#fff">
   <g fill-opacity=".189">
    <path d="m585.39 518.8s1.709-35.877-11.959-52.961c-13.667-17.084-11.959-27.334-29.043-35.876-17.084-8.543-29.043-6.834-29.043-6.834s39.294-10.251 56.378 25.626 13.667 70.045 13.667 70.045z"/>
    <path d="m204.41 474.38s0-23.918-6.833-34.168c-6.834-10.25-15.376-23.918-15.376-23.918s17.084 13.668 20.501 25.626c3.417 11.959 1.708 32.46 1.708 32.46z"/>
    <path d="m648.6 129.28s17.084-6.833 32.459 5.125c15.376 11.959 29.044 29.044 29.044 29.044s-13.668 1.708-13.668 10.25 1.709-6.834-11.959-22.209c-13.667-15.376-8.542-11.959-17.084-15.376s-18.792-6.834-18.792-6.834z"/>
    <path d="m768.19 424.84s5.125 6.834 15.375 8.542c10.251 1.709 13.668 3.417 13.668 3.417s3.417 17.084-5.125 34.168c-8.543 17.085-10.251 105.92-13.668 78.588-3.417-27.335-1.708-76.879-3.417-93.963-1.708-17.084-6.833-30.752-6.833-30.752z"/>
   </g>
   <path d="m642.72 419.58l-2.162-171.67 52.387-4.365 1.583 5.631s-41.249-3.056-45.296 4.158c-4.048 7.215-4.131 4.378-3.718 18.559 0.41302 14.182-2.794 147.69-2.794 147.69z" fill-opacity=".789"/>
   <g stroke="#000" stroke-width="1.895">
    <path d="m747.53 492.56l1.418 18.443s12.769 4.257 24.119 4.257c11.349 0 43.98-1.419 43.98-1.419l-2.838-24.118h-31.211c-9.931 0-18.444 0-25.537 1.418-7.094 1.419-9.931 1.419-9.931 1.419z"/>
    <path d="m957.5 484.05l-1.419 25.537 12.769-4.256 2.837-24.119s0-1.418-5.675 1.419c-5.675 2.838-8.512 1.419-8.512 1.419z"/>
   </g>
  </g>
  <g stroke-linecap="round" stroke-linejoin="round">
   <g stroke-opacity=".384" stroke-width="1.032">
    <path d="m558.2 521.7a22.061 38.244 0 1 1 -44.123 0" fill="url(#i)" stroke="#fff"/>
    <path d="m536.6 460c-19.922 0-36.067 27.532-36.067 61.416 0 17.153 4.161 32.566 10.838 43.708-5.293-10.681-9.383-27.954-9.383-43.005 0-33.884 14.733-59.149 34.655-59.149 9.903 0 21.033 8.243 27.556 19.24-6.622-13.46-16.481-22.21-27.599-22.21z" fill="#fff" fill-opacity=".405"/>
   </g>
   <g stroke-opacity=".405" stroke-width=".5">
    <path d="m186.94 479.85a12.467 27.011 0 1 1 -24.934 0" fill="url(#j)" stroke="#fff"/>
    <path d="m173.93 432.86c-11.782 0-21.38 20.136-21.38 44.951 0 7.468 1.134 14.174 2.665 20.374-0.856-4.865-0.784-17.146-0.784-22.636 0-24.815 8.465-38.966 20.247-38.966 8.225 0 15.529 11.283 19.093 25.652-3.023-17.093-10.676-29.375-19.841-29.375z" fill="#fff" fill-opacity=".627" opacity=".372"/>
   </g>
  </g>
  <path d="m846.15 181.56l53.747 8.599s21.499 45.148 23.649 55.897c2.15 10.75 17.199 51.598 17.199 51.598s-38.698-88.146-42.998-94.596c-4.3-6.449-51.597-21.498-51.597-21.498z" fill="#fff" fill-opacity=".416" stroke="#000" stroke-width="1.895"/>
  <g stroke-linecap="round" stroke-linejoin="round" stroke-width="1.392">
   <rect x="709.01" y="211.65" width="39.109" height="112.8" rx="12.197" ry="26.336" fill="#fff" fill-opacity=".827"/>
   <rect x="711.99" y="209.71" width="36.36" height="110.85" rx="11.34" ry="25.88"/>
  </g>
  <path d="m752.82 250.55s-3.182-6.364-9.545-8.909c-8.909-1.909-27.364-2.546-29.909-1.909-2.546 0.636 27.363-3.182 33.727-0.63701 6.364 2.546 5.727 11.455 5.727 11.455z" fill="#fff" fill-opacity=".584"/>
  <path d="m54 380.09l-2 94 50 18 40 2s-66-22-74-30c-18-44 2-174-14-84z" fill-opacity=".211"/>
 </g>
</svg>
