<?xml version="1.0" encoding="UTF-8"?>
<svg width="210mm" height="294.4mm" clip-rule="evenodd" fill-rule="evenodd" image-rendering="optimizeQuality" shape-rendering="geometricPrecision" text-rendering="geometricPrecision" version="1.1" viewBox="0 0 21000 29440" xmlns="http://www.w3.org/2000/svg">
 <defs>
  <style type="text/css">.fil2 {fill:#2B2A29} .fil0 {fill:#434242} .fil1 {fill:#727271} .fil7 {fill:#BA2322} .fil6 {fill:#D62925} .fil3 {fill:#EBECEC} .fil8 {fill:#FEFEFE} .fil4 {fill:#BA2322} .fil5 {fill:#D62925} .fil9 {fill:#962420;fill-rule:nonzero} .fil10 {fill:#CA2623;fill-rule:nonzero}</style>
 </defs>
 <rect class="fil0" x="11978" y="4066" width="3583" height="1003"/>
 <rect class="fil1" x="11978" y="4304" width="3583" height="764"/>
 <rect class="fil2" x="11978" y="4639" width="3583" height="430"/>
 <rect class="fil0" x="11978" y="7791" width="3583" height="1003"/>
 <rect class="fil1" x="11978" y="8030" width="3583" height="764"/>
 <rect class="fil2" x="11978" y="8365" width="3583" height="430"/>
 <rect class="fil0" x="11978" y="22530" width="3583" height="1003"/>
 <rect class="fil1" x="11978" y="22769" width="3583" height="764"/>
 <rect class="fil2" x="11978" y="23103" width="3583" height="430"/>
 <rect class="fil0" x="11978" y="26187" width="3583" height="1003"/>
 <rect class="fil1" x="11978" y="26426" width="3583" height="764"/>
 <rect class="fil2" x="11978" y="26760" width="3583" height="430"/>
 <rect class="fil3" y="3707" width="12935" height="5445"/>
 <rect class="fil3" y="22172" width="12935" height="5445"/>
 <rect class="fil3" y="51" width="10688" height="29339"/>
 <rect class="fil4" x="8555" y="51" width="2133" height="1720"/>
 <rect class="fil4" x="8555" y="14789" width="2133" height="1720"/>
 <rect class="fil5" x="8555" y="7433" width="4378" height="1720"/>
 <rect class="fil6" x="8555" y="22172" width="4378" height="1720"/>
 <rect class="fil5" x="8555" y="3707" width="4378" height="1720"/>
 <rect class="fil5" x="10803" y="5549" width="2133" height="1720"/>
 <rect class="fil6" x="10803" y="24013" width="2133" height="1720"/>
 <rect class="fil4" x="8555" y="18446" width="2133" height="1720"/>
 <rect class="fil4" x="8555" y="11090" width="2133" height="1720"/>
 <rect class="fil6" x="8555" y="25828" width="4378" height="1720"/>
 <rect class="fil4" x="6501" y="1892" width="4156" height="1720"/>
 <rect class="fil4" x="6501" y="16631" width="4156" height="1720"/>
 <rect class="fil4" x="6501" y="9275" width="4156" height="1720"/>
 <rect class="fil6" x="6501" y="24013" width="4156" height="1720"/>
 <rect class="fil5" x="6501" y="5549" width="4156" height="1720"/>
 <rect class="fil4" x="6501" y="20287" width="4156" height="1720"/>
 <rect class="fil4" x="6501" y="12931" width="4156" height="1720"/>
 <rect class="fil4" x="6501" y="27670" width="4156" height="1720"/>
 <rect class="fil4" y="51" width="4156" height="1720"/>
 <rect class="fil4" y="14789" width="4156" height="1720"/>
 <rect class="fil5" y="7433" width="4156" height="1720"/>
 <rect class="fil6" y="22172" width="4156" height="1720"/>
 <rect class="fil5" y="3707" width="4156" height="1720"/>
 <rect class="fil4" y="18446" width="4156" height="1720"/>
 <rect class="fil4" y="11090" width="4156" height="1720"/>
 <rect class="fil6" y="25828" width="4156" height="1720"/>
 <rect class="fil4" x="36" y="1892" width="2066" height="1720"/>
 <rect class="fil4" x="36" y="16631" width="2066" height="1720"/>
 <rect class="fil4" x="36" y="9275" width="2066" height="1720"/>
 <rect class="fil6" x="36" y="24013" width="2066" height="1720"/>
 <rect class="fil5" x="36" y="5549" width="2066" height="1720"/>
 <rect class="fil4" x="36" y="20287" width="2066" height="1720"/>
 <rect class="fil4" x="36" y="12931" width="2066" height="1720"/>
 <rect class="fil4" x="36" y="27670" width="2066" height="1720"/>
 <rect class="fil4" x="4278" y="51" width="4156" height="1720"/>
 <rect class="fil4" x="4278" y="14789" width="4156" height="1720"/>
 <rect class="fil5" x="4278" y="7433" width="4156" height="1720"/>
 <rect class="fil6" x="4278" y="22172" width="4156" height="1720"/>
 <rect class="fil5" x="4278" y="3707" width="4156" height="1720"/>
 <rect class="fil4" x="4278" y="18446" width="4156" height="1720"/>
 <rect class="fil4" x="4278" y="11090" width="4156" height="1720"/>
 <rect class="fil6" x="4278" y="25828" width="4156" height="1720"/>
 <rect class="fil4" x="2224" y="1892" width="4156" height="1720"/>
 <rect class="fil4" x="2224" y="16631" width="4156" height="1720"/>
 <rect class="fil4" x="2224" y="9275" width="4156" height="1720"/>
 <rect class="fil6" x="2224" y="24013" width="4156" height="1720"/>
 <rect class="fil5" x="2224" y="5549" width="4156" height="1720"/>
 <rect class="fil4" x="2224" y="20287" width="4156" height="1720"/>
 <rect class="fil4" x="2224" y="12931" width="4156" height="1720"/>
 <rect class="fil4" x="2224" y="27670" width="4156" height="1720"/>
 <path class="fil7" d="m15292 0h4932c427 0 776 350 776 776v27888c0 426-350 776-776 776h-4932c-426 0-777-349-777-776v-27888c0-427 350-776 777-776z"/>
 <path class="fil3" d="m15550 259h4415c427 0 776 349 776 776v27370c0 427-349 776-776 776h-4415c-427 0-776-349-776-776v-27370c0-427 349-776 776-776z"/>
 <path class="fil8" d="m20741 12070v16335c0 427-349 776-776 776h-4415c-427 0-776-349-776-776v-12399l5967-3936z"/>
 <path class="fil9" d="m17423 3002v1333c0 195 16 321 48 377s91 91 178 106v132h-1418v-132c87-15 145-50 177-106 33-56 48-182 48-377v-1902c0-196-15-321-48-377-32-55-90-91-177-106v-131h1418v131c-87 15-146 51-178 106-32 56-48 181-48 377v245h794v-245c0-196-16-321-48-377-32-55-91-91-178-106v-131h1418v131c-87 15-146 51-178 106-32 56-47 181-47 377v1902c0 195 15 321 47 377s91 91 178 106v132h-1418v-132c87-15 146-50 178-106s48-182 48-377v-1333h-794zm-1291 6070c0-465 161-853 485-1165 323-313 723-469 1200-469 476 0 876 156 1200 469 324 312 486 700 486 1165 0 463-161 852-484 1162-324 311-724 466-1202 466-477 0-877-155-1200-466-324-310-485-699-485-1162zm1634-1230c-194 0-346 87-455 262-110 175-165 417-165 729 0 443 68 798 201 1064 134 267 311 400 532 400 192 0 343-87 452-262 109-173 163-417 163-730 0-442-68-795-201-1063-134-267-310-400-527-400zm-725 8478v-132c113-9 191-47 232-115 43-69 64-212 64-430v-2079h-60c-212 0-389 56-530 170-141 113-247 283-317 511l-131-23 217-1085c29 19 59 33 89 41 31 7 71 11 122 11h2182c50 0 90-4 121-11 30-8 60-22 89-41l222 1085-133 23c-69-228-175-398-316-511-140-114-316-170-526-170h-62v2079c0 220 20 365 62 433 41 68 117 106 229 112v132h-1554zm-613 5685v-132c87-15 146-51 178-106 32-56 47-182 47-376v-1904c0-195-15-320-47-376-32-55-91-91-178-106v-131h2158c66 0 121-8 166-23 44-16 79-39 103-71l263 1079-123 19c-93-226-228-397-405-512-178-115-392-173-644-173-125 0-211 23-257 69-46 47-69 147-69 301v325h263c165 0 276-26 332-76 56-49 93-145 110-286h93l202 1198-94 23c-62-201-143-340-242-418s-240-118-423-118h-241v1032c0 180 29 299 86 358 58 59 166 89 324 89 255 0 482-76 679-229s374-387 531-705l122 23-399 1277c-29-18-61-31-95-39-35-8-86-12-153-12h-2287zm108 5685v-132c86-15 145-51 177-106 32-56 48-182 48-377v-1902c0-195-16-321-48-377-32-55-91-91-177-106v-132h1441v132c-95 19-160 59-195 118-36 59-54 181-54 365v1671c0 231 27 379 82 440 56 61 154 91 294 91 219 0 417-79 592-237s328-395 459-711l108 37-357 1277c-26-19-54-33-83-40s-73-11-133-11h-2154z"/>
 <path class="fil10" d="m17363 2942v1333c0 195 16 321 48 377s91 91 178 106v132h-1418v-132c87-15 145-50 177-106 33-56 48-182 48-377v-1902c0-196-15-321-48-377-32-55-90-91-177-106v-131h1418v131c-87 15-146 51-178 106-32 56-48 181-48 377v245h794v-245c0-196-16-321-48-377-32-55-91-91-178-106v-131h1418v131c-87 15-146 51-178 106-32 56-47 181-47 377v1902c0 195 15 321 47 377s91 91 178 106v132h-1418v-132c87-15 146-50 178-106s48-182 48-377v-1333h-794zm-1291 6070c0-465 161-853 485-1165 323-313 723-469 1200-469 476 0 876 156 1200 469 324 312 486 700 486 1165 0 463-161 852-484 1162-324 311-724 466-1202 466-477 0-877-155-1200-466-324-310-485-699-485-1162zm1634-1230c-194 0-346 87-455 262-110 175-165 417-165 729 0 443 68 798 201 1064 134 267 311 400 532 400 192 0 343-87 452-262 109-173 163-417 163-730 0-442-68-795-201-1063-134-267-310-400-527-400zm-725 8478v-132c113-9 191-47 232-115 43-69 64-212 64-430v-2079h-60c-212 0-389 56-530 170-141 113-247 283-317 511l-131-23 217-1085c29 19 59 33 89 41 31 7 71 11 122 11h2182c50 0 90-4 121-11 30-8 60-22 89-41l222 1085-133 23c-69-228-175-398-316-511-140-114-316-170-526-170h-62v2079c0 220 20 365 62 433 41 68 117 106 229 112v132h-1554zm-613 5685v-132c87-15 146-51 178-106 32-56 47-182 47-376v-1904c0-195-15-320-47-376-32-55-91-91-178-106v-131h2158c66 0 121-8 166-23 44-16 79-39 103-71l263 1079-123 19c-93-226-228-397-405-512-178-115-392-173-644-173-125 0-211 23-257 69-46 47-69 147-69 301v325h263c165 0 276-26 332-76 56-49 93-145 110-286h93l202 1198-94 23c-62-201-143-340-242-418s-240-118-423-118h-241v1032c0 180 29 299 86 358 58 59 166 89 324 89 255 0 482-76 679-229s374-387 531-705l122 23-399 1277c-29-18-61-31-95-39-35-8-86-12-153-12h-2287zm108 5685v-132c86-15 145-51 177-106 32-56 48-182 48-377v-1902c0-195-16-321-48-377-32-55-91-91-177-106v-132h1441v132c-95 19-160 59-195 118-36 59-54 181-54 365v1671c0 231 27 379 82 440 56 61 154 91 294 91 219 0 417-79 592-237s328-395 459-711l108 37-357 1277c-26-19-54-33-83-40s-73-11-133-11h-2154z"/>
</svg>
